<svg viewBox="0 0 320 300" xmlns="http://www.w3.org/2000/svg" font-family="Times New Roman, serif">
  <rect x="0" y="0" width="320" height="300" fill="#0a0a0a"/>

  <!-- grid lines -->
  <g stroke="#4a4a4a" stroke-width="0.8">
    <line x1="60"  y1="20" x2="60"  y2="260"/>
    <line x1="100" y1="20" x2="100" y2="260"/>
    <line x1="140" y1="20" x2="140" y2="260"/>
    <line x1="180" y1="20" x2="180" y2="260"/>
    <line x1="220" y1="20" x2="220" y2="260"/>
    <line x1="260" y1="20" x2="260" y2="260"/>
    <line x1="20" y1="220" x2="260" y2="220"/>
    <line x1="20" y1="180" x2="260" y2="180"/>
    <line x1="20" y1="140" x2="260" y2="140"/>
    <line x1="20" y1="100" x2="260" y2="100"/>
    <line x1="20" y1="60"  x2="260" y2="60"/>
    <line x1="20" y1="20"  x2="260" y2="20"/>
  </g>

  <!-- axes -->
  <line x1="20" y1="260" x2="280" y2="260" stroke="#e4ddd0" stroke-width="1.6"/>
  <line x1="20" y1="260" x2="20" y2="10" stroke="#e4ddd0" stroke-width="1.6"/>
  <path d="M 280,260 L 270,255 L 270,265 Z" fill="#e4ddd0"/>
  <path d="M 20,10 L 15,20 L 25,20 Z" fill="#e4ddd0"/>

  <text x="288" y="265" fill="#e4ddd0" font-size="14" font-style="italic">x</text>
  <text x="10" y="14" fill="#e4ddd0" font-size="14" font-style="italic">y</text>
  <text x="6" y="272" fill="#e4ddd0" font-size="14" font-style="italic">O</text>

  <!-- x-axis numbers -->
  <text x="56"  y="276" fill="#e4ddd0" font-size="12">2</text>
  <text x="96"  y="276" fill="#e4ddd0" font-size="12">4</text>
  <text x="136" y="276" fill="#e4ddd0" font-size="12">6</text>
  <text x="176" y="276" fill="#e4ddd0" font-size="12">8</text>
  <text x="212" y="276" fill="#e4ddd0" font-size="12">10</text>
  <text x="252" y="276" fill="#e4ddd0" font-size="12">12</text>

  <!-- y-axis numbers -->
  <text x="5" y="224" fill="#e4ddd0" font-size="12">2</text>
  <text x="5" y="184" fill="#e4ddd0" font-size="12">4</text>
  <text x="5" y="144" fill="#e4ddd0" font-size="12">6</text>
  <text x="5" y="104" fill="#e4ddd0" font-size="12">8</text>
  <text x="0" y="64"  fill="#e4ddd0" font-size="12">10</text>
  <text x="0" y="24"  fill="#e4ddd0" font-size="12">12</text>

  <!-- ellipse -->
  <ellipse cx="180" cy="140" rx="20" ry="120" fill="none" stroke="#e4ddd0" stroke-width="1.6"/>

  <!-- point (8,12) -->
  <text x="190" y="22" fill="#e4ddd0" font-size="14">(8, 12)</text>
</svg>
