<svg width="560" height="220" viewBox="0 0 560 220" xmlns="http://www.w3.org/2000/svg">
  <rect width="560" height="220" fill="#f7f5f0" rx="2"/>
  <!-- Grid lines -->
  <line x1="40" y1="38" x2="540" y2="38" stroke="#e0ddd6" stroke-width="0.8" stroke-dasharray="4,3"/>
  <line x1="40" y1="182" x2="540" y2="182" stroke="#e0ddd6" stroke-width="0.8" stroke-dasharray="4,3"/>
  <!-- y labels -->
  <text x="34" y="42" text-anchor="end" font-family="Georgia,serif" font-size="10" fill="#777">1</text>
  <text x="34" y="186" text-anchor="end" font-family="Georgia,serif" font-size="10" fill="#777">-1</text>
  <!-- Axes -->
  <line x1="40" y1="110" x2="545" y2="110" stroke="#444" stroke-width="1.2"/>
  <line x1="195" y1="14" x2="195" y2="206" stroke="#444" stroke-width="1.2"/>
  <!-- Arrowheads -->
  <polygon points="545,110 537,106 537,114" fill="#444"/>
  <polygon points="195,14 191,22 199,22" fill="#444"/>
  <!-- Axis labels -->
  <text x="552" y="114" font-family="Georgia,serif" font-size="11" font-style="italic" fill="#555">x</text>
  <text x="185" y="11" font-family="Georgia,serif" font-size="11" font-style="italic" fill="#555">y</text>
  <!-- Ticks -->
  <line x1="60.0" y1="106" x2="60.0" y2="114" stroke="#666" stroke-width="1"/>
<text x="60.0" y="126" text-anchor="middle" font-family="Georgia,serif" font-size="10" fill="#666">-π</text>
<line x1="105.0" y1="106" x2="105.0" y2="114" stroke="#666" stroke-width="1"/>
<line x1="150.0" y1="106" x2="150.0" y2="114" stroke="#666" stroke-width="1"/>
<line x1="195.0" y1="106" x2="195.0" y2="114" stroke="#666" stroke-width="1"/>
<text x="195.0" y="126" text-anchor="middle" font-family="Georgia,serif" font-size="10" fill="#666">0</text>
<line x1="240.0" y1="106" x2="240.0" y2="114" stroke="#666" stroke-width="1"/>
<line x1="285.0" y1="106" x2="285.0" y2="114" stroke="#666" stroke-width="1"/>
<line x1="330.0" y1="106" x2="330.0" y2="114" stroke="#666" stroke-width="1"/>
<text x="330.0" y="126" text-anchor="middle" font-family="Georgia,serif" font-size="10" fill="#666">π</text>
<line x1="375.0" y1="106" x2="375.0" y2="114" stroke="#666" stroke-width="1"/>
<line x1="420.0" y1="106" x2="420.0" y2="114" stroke="#666" stroke-width="1"/>
<line x1="465.0" y1="106" x2="465.0" y2="114" stroke="#666" stroke-width="1"/>
<text x="465.0" y="126" text-anchor="middle" font-family="Georgia,serif" font-size="10" fill="#666">2π</text>
<text x="105.0" y="126" text-anchor="middle" font-family="Georgia,serif" font-size="9" fill="#999">-₂₃π</text>
<text x="150.0" y="126" text-anchor="middle" font-family="Georgia,serif" font-size="9" fill="#999">-₁₃π</text>
<text x="240.0" y="126" text-anchor="middle" font-family="Georgia,serif" font-size="9" fill="#999">₁₃π</text>
<text x="285.0" y="126" text-anchor="middle" font-family="Georgia,serif" font-size="9" fill="#999">₂₃π</text>
<text x="375.0" y="126" text-anchor="middle" font-family="Georgia,serif" font-size="9" fill="#999">₄₃π</text>
<text x="420.0" y="126" text-anchor="middle" font-family="Georgia,serif" font-size="9" fill="#999">₅₃π</text>

  <!-- Curve -->
  <path d="M 60.0 146.0 L 61.3 145.0 L 62.7 144.0 L 64.1 143.0 L 65.4 142.0 L 66.8 141.0 L 68.1 140.0 L 69.5 138.9 L 70.8 137.9 L 72.2 136.9 L 73.5 135.8 L 74.8 134.7 L 76.2 133.7 L 77.5 132.6 L 78.9 131.5 L 80.2 130.4 L 81.6 129.4 L 83.0 128.3 L 84.3 127.2 L 85.7 126.1 L 87.0 125.0 L 88.3 123.9 L 89.7 122.8 L 91.1 121.6 L 92.4 120.5 L 93.8 119.4 L 95.1 118.3 L 96.5 117.2 L 97.8 116.0 L 99.2 114.9 L 100.5 113.8 L 101.8 112.6 L 103.2 111.5 L 104.6 110.4 L 105.9 109.2 L 107.2 108.1 L 108.6 107.0 L 110.0 105.9 L 111.3 104.7 L 112.7 103.6 L 114.0 102.5 L 115.4 101.4 L 116.7 100.2 L 118.0 99.1 L 119.4 98.0 L 120.7 96.9 L 122.1 95.8 L 123.4 94.7 L 124.8 93.6 L 126.2 92.5 L 127.5 91.4 L 128.8 90.3 L 130.2 89.2 L 131.6 88.1 L 132.9 87.0 L 134.2 86.0 L 135.6 84.9 L 136.9 83.8 L 138.3 82.8 L 139.7 81.8 L 141.0 80.7 L 142.3 79.7 L 143.7 78.7 L 145.1 77.6 L 146.4 76.6 L 147.8 75.6 L 149.1 74.7 L 150.5 73.7 L 151.8 72.7 L 153.1 71.7 L 154.5 70.8 L 155.8 69.8 L 157.2 68.9 L 158.6 68.0 L 159.9 67.1 L 161.2 66.2 L 162.6 65.3 L 163.9 64.4 L 165.3 63.5 L 166.6 62.7 L 168.0 61.8 L 169.4 61.0 L 170.7 60.2 L 172.0 59.4 L 173.4 58.6 L 174.8 57.8 L 176.1 57.0 L 177.4 56.2 L 178.8 55.5 L 180.2 54.8 L 181.5 54.0 L 182.9 53.3 L 184.2 52.6 L 185.6 52.0 L 186.9 51.3 L 188.2 50.7 L 189.6 50.0 L 191.0 49.4 L 192.3 48.8 L 193.7 48.2 L 195.0 47.6 L 196.3 47.1 L 197.7 46.5 L 199.0 46.0 L 200.4 45.5 L 201.8 45.0 L 203.1 44.5 L 204.4 44.1 L 205.8 43.6 L 207.2 43.2 L 208.5 42.8 L 209.8 42.4 L 211.2 42.0 L 212.6 41.6 L 213.9 41.3 L 215.3 41.0 L 216.6 40.7 L 218.0 40.4 L 219.3 40.1 L 220.6 39.8 L 222.0 39.6 L 223.4 39.3 L 224.7 39.1 L 226.1 38.9 L 227.4 38.8 L 228.8 38.6 L 230.1 38.5 L 231.4 38.4 L 232.8 38.3 L 234.2 38.2 L 235.5 38.1 L 236.8 38.0 L 238.2 38.0 L 239.5 38.0 L 240.9 38.0 L 242.2 38.0 L 243.6 38.1 L 245.0 38.1 L 246.3 38.2 L 247.7 38.3 L 249.0 38.4 L 250.3 38.5 L 251.7 38.7 L 253.1 38.8 L 254.4 39.0 L 255.8 39.2 L 257.1 39.4 L 258.4 39.7 L 259.8 39.9 L 261.1 40.2 L 262.5 40.5 L 263.9 40.8 L 265.2 41.1 L 266.6 41.4 L 267.9 41.8 L 269.2 42.1 L 270.6 42.5 L 272.0 42.9 L 273.3 43.3 L 274.7 43.8 L 276.0 44.2 L 277.4 44.7 L 278.7 45.2 L 280.0 45.7 L 281.4 46.2 L 282.8 46.7 L 284.1 47.3 L 285.4 47.8 L 286.8 48.4 L 288.1 49.0 L 289.5 49.6 L 290.9 50.2 L 292.2 50.9 L 293.6 51.5 L 294.9 52.2 L 296.2 52.9 L 297.6 53.6 L 298.9 54.3 L 300.3 55.0 L 301.6 55.7 L 303.0 56.5 L 304.3 57.3 L 305.7 58.0 L 307.0 58.8 L 308.4 59.6 L 309.8 60.4 L 311.1 61.3 L 312.5 62.1 L 313.8 63.0 L 315.1 63.8 L 316.5 64.7 L 317.8 65.6 L 319.2 66.5 L 320.6 67.4 L 321.9 68.3 L 323.2 69.2 L 324.6 70.2 L 325.9 71.1 L 327.3 72.1 L 328.6 73.0 L 330.0 74.0 L 331.4 75.0 L 332.7 76.0 L 334.0 77.0 L 335.4 78.0 L 336.8 79.0 L 338.1 80.0 L 339.5 81.1 L 340.8 82.1 L 342.1 83.1 L 343.5 84.2 L 344.9 85.3 L 346.2 86.3 L 347.5 87.4 L 348.9 88.5 L 350.2 89.6 L 351.6 90.6 L 352.9 91.7 L 354.3 92.8 L 355.6 93.9 L 357.0 95.0 L 358.4 96.1 L 359.7 97.2 L 361.1 98.4 L 362.4 99.5 L 363.8 100.6 L 365.1 101.7 L 366.4 102.8 L 367.8 104.0 L 369.1 105.1 L 370.5 106.2 L 371.8 107.4 L 373.2 108.5 L 374.5 109.6 L 375.9 110.8 L 377.2 111.9 L 378.6 113.0 L 379.9 114.1 L 381.3 115.3 L 382.6 116.4 L 384.0 117.5 L 385.4 118.6 L 386.7 119.8 L 388.0 120.9 L 389.4 122.0 L 390.8 123.1 L 392.1 124.2 L 393.4 125.3 L 394.8 126.4 L 396.1 127.5 L 397.5 128.6 L 398.9 129.7 L 400.2 130.8 L 401.6 131.9 L 402.9 133.0 L 404.2 134.0 L 405.6 135.1 L 407.0 136.2 L 408.3 137.2 L 409.6 138.2 L 411.0 139.3 L 412.4 140.3 L 413.7 141.3 L 415.1 142.4 L 416.4 143.4 L 417.7 144.4 L 419.1 145.3 L 420.5 146.3 L 421.8 147.3 L 423.1 148.3 L 424.5 149.2 L 425.9 150.2 L 427.2 151.1 L 428.5 152.0 L 429.9 152.9 L 431.2 153.8 L 432.6 154.7 L 434.0 155.6 L 435.3 156.5 L 436.7 157.3 L 438.0 158.2 L 439.4 159.0 L 440.7 159.8 L 442.0 160.6 L 443.4 161.4 L 444.8 162.2 L 446.1 163.0 L 447.4 163.8 L 448.8 164.5 L 450.1 165.2 L 451.5 166.0 L 452.9 166.7 L 454.2 167.4 L 455.6 168.0 L 456.9 168.7 L 458.3 169.3 L 459.6 170.0 L 460.9 170.6 L 462.3 171.2 L 463.7 171.8 L 465.0 172.4" fill="none" stroke="#1a1a1a" stroke-width="2.2"/>
</svg>